<?xml version="1.0" standalone="no"?>
<!DOCTYPE svg PUBLIC "-//W3C//DTD SVG 20010904//EN"
 "http://www.w3.org/TR/2001/REC-SVG-20010904/DTD/svg10.dtd">
<svg version="1.0" xmlns="http://www.w3.org/2000/svg"
 width="512.000000pt" height="512.000000pt" viewBox="0 0 512.000000 512.000000"
 preserveAspectRatio="xMidYMid meet">
<metadata>
Created by potrace 1.16, written by Peter Selinger 2001-2019
</metadata>
<g transform="translate(0.000000,512.000000) scale(0.100000,-0.100000)"
fill="#000000" stroke="none">
<path d="M2460 4884 c-334 -40 -540 -98 -805 -228 -253 -125 -460 -272 -664
-470 -369 -360 -588 -775 -678 -1286 -45 -257 -43 -613 3 -860 97 -511 391
-1000 794 -1322 381 -304 789 -465 1291 -510 124 -11 159 -8 159 11 0 10 -21
14 -195 31 -223 22 -584 114 -758 194 -92 42 -258 138 -276 160 -25 30 12 18
88 -29 97 -60 229 -131 266 -144 25 -9 27 -8 11 2 -10 6 -28 20 -40 29 l-21
17 30 25 c36 30 50 17 -144 132 -349 209 -529 359 -696 579 -166 221 -307 540
-365 828 -31 153 -21 176 14 30 26 -112 46 -156 63 -139 4 3 -5 43 -20 89 -44
138 -57 200 -68 334 -30 362 58 793 230 1118 122 233 267 431 436 599 248 245
507 403 848 517 142 48 214 65 350 84 146 21 155 20 159 -11 l3 -26 180 -3
c254 -5 490 -46 729 -127 241 -81 479 -224 696 -419 49 -43 92 -79 97 -79 4 0
0 5 -9 11 -22 12 -23 29 -3 29 8 0 69 -61 136 -135 67 -74 125 -135 130 -135
84 0 -208 351 -451 542 -237 186 -417 281 -681 361 -168 51 -163 51 -169 -3
-5 -43 -7 -45 -35 -44 -16 1 -84 11 -150 23 -75 14 -179 25 -280 28 -88 3
-165 10 -172 15 -15 12 -117 4 -303 -23 -212 -31 -334 -66 -532 -153 -55 -24
-46 -12 20 27 137 80 379 169 557 205 138 29 219 35 445 36 l195 1 3 33 c3 27
-1 34 -23 42 -27 10 -334 21 -395 14z m-2023 -2676 c-3 -7 -5 -2 -5 12 0 14 2
19 5 13 2 -7 2 -19 0 -25z"/>
<path d="M2320 4399 c-77 -12 -192 -41 -186 -46 2 -2 48 5 103 17 54 11 132
24 173 29 70 8 71 8 20 9 -30 0 -80 -4 -110 -9z"/>
<path d="M2349 4349 c-236 -15 -425 -66 -644 -173 -416 -205 -772 -615 -920
-1059 -39 -118 -74 -265 -75 -313 0 -25 6 -33 33 -45 l32 -14 -5 -80 c-26
-419 38 -762 190 -1016 192 -319 446 -579 713 -729 159 -90 389 -175 587 -217
115 -25 144 -27 370 -28 281 0 376 14 587 86 136 46 339 142 404 191 24 18 91
67 149 108 154 109 186 136 252 217 43 53 65 72 80 70 42 -4 235 257 318 428
40 85 118 340 126 415 3 30 2 39 -4 25 -9 -19 -9 -19 -20 0 -7 15 -6 50 4 125
16 126 18 271 4 411 -16 162 -57 379 -86 460 -52 146 -170 350 -303 524 -64
84 -215 250 -251 275 -63 45 -29 -8 80 -125 61 -65 131 -145 156 -179 115
-152 228 -386 279 -577 35 -129 92 -446 100 -549 14 -180 -35 -436 -125 -657
-104 -255 -281 -475 -590 -735 -201 -169 -521 -325 -831 -407 -318 -83 -609
-74 -912 30 -249 85 -561 294 -752 501 -163 179 -410 546 -449 670 -41 132
-56 239 -56 413 0 201 10 297 50 460 65 273 155 460 328 685 300 391 647 621
1072 711 139 30 457 33 590 6 202 -40 465 -152 626 -265 153 -109 345 -301
530 -534 123 -154 219 -373 280 -634 23 -101 28 -142 28 -274 1 -166 -11 -246
-60 -397 -41 -128 -126 -291 -224 -427 -89 -124 -91 -128 -76 -151 9 -14 16
-30 16 -36 0 -18 -154 -172 -272 -272 -60 -50 -108 -92 -108 -94 0 -9 108 70
199 146 136 112 299 311 411 501 141 241 215 569 190 841 -27 289 -78 485
-176 681 -70 140 -120 216 -214 323 -298 342 -639 566 -993 650 -181 43 -352
52 -638 34z m679 -117 c29 -13 51 -27 48 -29 -5 -5 -166 56 -166 64 0 9 65
-10 118 -35z m552 -248 c182 -112 398 -324 515 -504 117 -180 214 -446 215
-588 0 -70 -20 -46 -49 58 -80 286 -192 495 -380 713 -98 114 -274 278 -356
333 -75 51 -30 41 55 -12z"/>
<path d="M3631 4346 c2 -2 58 -44 124 -94 626 -470 918 -1025 918 -1742 0
-205 -12 -298 -58 -455 -94 -321 -198 -525 -381 -750 -123 -151 -337 -347
-496 -453 -79 -52 -90 -66 -20 -26 207 120 481 357 635 549 258 322 347 610
347 1114 0 97 -5 217 -10 266 -43 390 -179 731 -408 1025 -90 114 -286 315
-397 405 -87 71 -229 165 -249 165 -5 0 -7 -2 -5 -4z"/>
<path d="M2384 4200 c-196 -22 -353 -69 -531 -159 -145 -73 -228 -131 -360
-252 -303 -280 -486 -591 -548 -929 -33 -185 -43 -426 -24 -567 50 -369 232
-704 510 -937 283 -239 570 -386 879 -452 130 -28 429 -26 567 4 272 59 557
206 780 401 101 89 220 222 229 256 3 12 2 54 -3 94 l-8 72 -65 -88 c-206
-280 -496 -473 -845 -563 -153 -39 -257 -52 -420 -52 -337 0 -599 93 -883 314
-77 60 -66 32 15 -42 164 -146 382 -255 629 -311 83 -19 128 -22 284 -23 202
0 306 14 443 59 92 30 93 30 101 8 9 -21 -3 -28 -99 -57 -165 -50 -239 -61
-435 -60 -200 0 -309 16 -470 70 -140 47 -404 185 -570 297 -74 51 -241 226
-309 325 -200 295 -303 682 -273 1031 34 390 162 702 405 989 249 294 514 455
879 534 138 29 427 32 561 5 182 -37 350 -106 515 -213 89 -58 259 -184 248
-184 -12 0 -102 45 -226 113 -138 77 -261 133 -360 165 -261 86 -600 86 -861
1 -117 -38 -349 -156 -349 -178 0 -4 13 -14 29 -24 29 -17 29 -17 90 24 88 59
207 104 356 135 112 24 154 27 300 28 328 0 572 -68 819 -229 42 -27 64 -34
126 -39 113 -9 116 0 24 78 -274 234 -581 352 -934 361 -80 2 -177 0 -216 -5z"/>
<path d="M3720 4056 c0 -2 8 -10 18 -17 15 -13 16 -12 3 4 -13 16 -21 21 -21
13z"/>
<path d="M2520 4003 c-97 -5 -260 -34 -339 -59 -240 -79 -530 -269 -678 -446
-196 -234 -293 -439 -349 -737 -51 -273 -42 -464 32 -716 63 -210 161 -387
294 -525 l62 -65 -61 73 c-87 104 -157 211 -203 309 -39 83 -48 139 -12 74 49
-86 158 -243 215 -308 72 -82 224 -215 314 -274 33 -22 101 -60 151 -85 130
-63 396 -149 301 -98 -43 23 -25 28 50 13 45 -9 137 -14 268 -14 180 1 211 4
310 27 202 48 404 141 539 248 89 71 221 214 303 328 242 338 320 731 222
1117 -26 105 -125 307 -178 365 l-42 45 7 -45 c3 -25 20 -71 36 -103 42 -84
95 -248 113 -351 20 -115 20 -330 0 -435 -22 -112 -77 -269 -132 -371 -263
-489 -706 -763 -1238 -764 -153 0 -242 14 -385 60 -121 39 -211 83 -365 180
-146 91 -268 213 -350 348 -33 55 -81 126 -108 159 -82 103 -124 217 -147 397
-19 148 -3 349 41 525 41 166 60 179 30 21 -12 -59 -21 -123 -21 -142 0 -38
17 -47 24 -11 2 12 13 64 23 115 11 52 16 95 11 98 -16 10 -2 29 21 29 18 0
28 16 62 100 99 247 262 464 489 650 60 49 220 144 220 131 0 -3 -46 -36 -102
-73 -110 -72 -287 -239 -370 -348 -229 -302 -371 -754 -329 -1050 34 -245 145
-520 285 -706 71 -94 153 -159 199 -159 34 0 56 -11 123 -61 89 -68 324 -160
403 -158 14 0 -7 9 -47 19 -195 51 -361 147 -507 294 -235 236 -365 555 -365
897 0 213 45 402 144 604 126 255 261 423 466 576 198 149 334 197 576 206 83
3 177 1 230 -6 299 -40 589 -225 839 -537 73 -90 80 -97 83 -72 10 82 -175
298 -358 420 -118 78 -246 140 -370 178 -140 43 -140 43 -112 48 33 5 242 -63
336 -109 188 -94 358 -239 476 -405 35 -49 80 -109 101 -132 21 -24 58 -78 83
-121 137 -233 186 -433 186 -757 0 -222 -34 -362 -137 -568 -24 -48 -42 -91
-39 -93 11 -11 37 21 87 108 56 99 101 213 130 334 23 95 37 308 22 327 -6 7
-14 45 -18 83 -17 172 -99 454 -181 621 -39 80 -64 114 -159 216 -203 219
-351 342 -500 416 -149 74 -334 125 -499 137 -130 10 -151 11 -206 8z m55 -55
c-201 -18 -308 -41 -480 -104 -14 -5 -17 -4 -10 3 6 6 43 23 83 37 138 49 281
73 432 73 75 0 75 0 -25 -9z"/>
<path d="M4357 3762 c107 -142 129 -168 87 -102 -54 85 -154 218 -168 223 -8
3 29 -51 81 -121z"/>
<path d="M3892 3843 c102 -123 143 -169 156 -177 11 -6 10 -1 -4 23 -25 42
-143 171 -156 171 -7 0 -5 -7 4 -17z"/>
<path d="M2366 3804 c-163 -30 -356 -110 -482 -200 -66 -46 -178 -162 -234
-240 l-34 -49 59 53 c86 77 299 216 419 273 266 127 588 144 886 47 175 -56
393 -200 471 -309 33 -46 8 -34 -87 43 -168 136 -314 211 -502 260 -105 28
-133 31 -267 32 -276 1 -462 -61 -735 -244 -218 -146 -274 -204 -354 -367 -98
-199 -141 -401 -133 -628 5 -165 30 -283 88 -430 50 -127 56 -136 70 -112 5 9
14 17 19 17 5 0 33 -33 63 -72 56 -75 228 -248 247 -248 7 0 9 -13 4 -35 -6
-32 -3 -39 32 -71 83 -76 275 -169 404 -196 63 -13 64 -13 30 -20 -19 -3 51
-5 155 -4 212 4 310 18 457 67 240 81 448 232 604 439 98 130 185 308 215 440
6 24 15 47 21 51 40 25 52 345 19 505 -23 111 -78 253 -138 354 -49 83 -295
361 -383 433 -103 83 -258 159 -405 198 -106 29 -390 36 -509 13z m354 -119
c104 -15 177 -38 259 -79 71 -37 60 -42 -20 -10 -205 84 -507 86 -730 4 -301
-110 -558 -365 -653 -651 -44 -131 -59 -254 -53 -434 6 -176 24 -267 77 -395
61 -148 126 -245 253 -377 152 -158 335 -258 540 -293 68 -12 87 -32 36 -38
-20 -2 -133 23 -238 54 -18 5 -22 4 -17 -5 12 -19 -130 55 -212 111 -71 48
-73 50 -56 69 16 18 16 19 -9 19 -35 0 -116 73 -234 207 -100 116 -129 170
-177 336 -57 195 -59 384 -7 588 79 314 265 575 522 734 114 71 176 99 288
131 154 43 282 52 431 29z m91 -144 c237 -53 485 -202 644 -388 142 -166 185
-279 186 -488 0 -240 -66 -449 -210 -665 -66 -100 -200 -238 -292 -303 -123
-87 -300 -161 -443 -186 -87 -16 -235 -13 -324 5 -69 14 -139 40 -130 49 1 2
41 -6 88 -16 116 -27 298 -29 403 -5 43 10 76 20 74 23 -3 2 -32 -1 -64 -8
-32 -7 -114 -13 -183 -12 -222 1 -381 53 -536 176 -139 111 -258 282 -353 507
-22 52 -41 91 -41 85 0 -23 61 -170 109 -262 36 -69 44 -89 26 -68 -56 65
-158 306 -141 334 3 5 -2 38 -11 73 -12 46 -17 101 -16 203 1 169 27 286 97
430 75 154 203 307 182 218 -4 -16 -8 -35 -9 -43 -2 -8 -19 -46 -39 -85 -52
-101 -85 -208 -108 -340 -78 -455 96 -874 451 -1085 67 -40 160 -80 182 -80 7
1 -1 12 -18 25 -43 35 -26 40 44 11 33 -14 66 -26 72 -26 7 0 20 -7 30 -15 46
-42 258 -24 404 34 154 62 345 213 454 359 215 287 277 662 156 937 -96 216
-319 421 -559 514 -152 59 -225 74 -356 75 -97 1 -240 -17 -228 -29 2 -2 48 0
103 5 55 5 116 5 135 0 l35 -8 -35 -1 c-64 -2 -280 -41 -342 -62 -88 -29 -143
-59 -236 -128 -45 -34 -82 -57 -82 -52 0 15 121 115 198 166 92 59 185 102
276 125 99 26 291 26 407 1z m384 -71 c89 -43 208 -128 226 -162 l12 -22 -29
22 c-80 62 -159 112 -249 160 -114 60 -83 62 40 2z m-806 -24 c-2 -2 -37 -18
-77 -35 -221 -93 -399 -279 -499 -520 -27 -67 -31 -46 -4 30 82 239 266 429
491 506 59 20 100 29 89 19z m589 -152 c62 -30 113 -65 156 -105 64 -59 144
-164 134 -175 -3 -3 -15 10 -26 28 -51 81 -200 203 -327 266 -49 24 -76 41
-60 38 17 -4 72 -27 123 -52z m587 -109 c95 -142 159 -311 153 -406 l-3 -54
-16 80 c-29 143 -95 281 -200 421 -33 43 -59 84 -59 93 0 25 67 -46 125 -134z
m-831 119 c89 -23 181 -75 298 -169 221 -177 279 -281 280 -497 0 -119 -34
-226 -108 -345 -60 -97 -199 -238 -281 -286 -281 -163 -617 -126 -834 92 -190
191 -258 440 -193 711 51 212 292 437 530 494 81 20 232 20 308 0z m555 -207
c152 -192 223 -481 175 -713 -93 -452 -455 -747 -897 -732 -101 3 -119 6 -181
36 -178 83 -312 185 -391 297 -51 72 -102 174 -111 225 -5 32 -3 30 20 -17 88
-182 278 -368 451 -440 127 -53 312 -56 465 -8 193 61 346 166 451 308 242
326 248 679 17 1018 -54 79 -60 89 -54 89 2 0 27 -29 55 -63z m92 -307 c21
-85 16 -277 -10 -375 -54 -201 -178 -388 -325 -487 -140 -96 -280 -140 -446
-142 -123 -1 -187 13 -287 62 -79 39 -93 54 -22 24 118 -51 312 -67 433 -37
33 9 107 39 164 67 82 40 120 66 187 130 252 238 340 495 280 811 -9 51 10 10
26 -53z m-1594 18 c-3 -8 -6 -5 -6 6 -1 11 2 17 5 13 3 -3 4 -12 1 -19z m2002
-166 c5 -48 5 -121 2 -162 -6 -71 -7 -66 -14 75 -4 83 -10 164 -13 180 -4 25
-3 27 6 12 7 -10 15 -57 19 -105z m-39 -120 c-1 -228 -50 -406 -166 -599 -136
-226 -341 -404 -574 -500 -104 -43 -176 -60 -312 -74 -176 -18 -405 14 -485
67 -38 25 -13 30 63 10 346 -88 641 -43 901 136 226 155 428 440 508 713 21
73 43 242 45 343 0 7 5 10 10 7 6 -3 10 -49 10 -103z m27 -164 c-3 -8 -6 -5
-6 6 -1 11 2 17 5 13 3 -3 4 -12 1 -19z"/>
<path d="M2828 1573 c7 -3 16 -2 19 1 4 3 -2 6 -13 5 -11 0 -14 -3 -6 -6z"/>
<path d="M2426 3234 c-129 -31 -266 -131 -342 -250 -18 -29 -46 -88 -61 -131
-24 -70 -27 -92 -27 -213 0 -86 4 -144 12 -160 11 -22 11 -20 5 20 -19 130 3
283 54 384 36 70 143 174 236 229 104 60 191 81 310 74 113 -6 182 -31 288
-103 44 -29 79 -51 79 -48 0 19 -97 114 -146 144 -107 65 -273 87 -408 54z"/>
<path d="M2667 3061 c226 -57 373 -268 342 -491 -26 -187 -191 -355 -383 -391
-106 -19 -240 9 -339 73 -50 32 -120 111 -132 149 -4 11 -9 18 -12 16 -8 -8
43 -100 86 -154 105 -131 288 -191 451 -148 136 36 264 133 337 256 38 63 73
190 73 263 0 161 -106 347 -234 414 -44 22 -66 26 -156 29 l-105 3 72 -19z"/>
<path d="M3000 3075 c0 -3 15 -26 34 -52 47 -67 90 -156 116 -242 31 -101 25
-262 -13 -369 -65 -185 -211 -343 -386 -419 -31 -13 -43 -21 -26 -18 51 11
149 64 214 116 122 99 230 260 265 395 23 88 21 226 -4 305 -22 73 -72 159
-131 230 -36 42 -69 68 -69 54z"/>
<path d="M2268 2733 c-68 -77 -84 -216 -36 -308 28 -54 105 -133 156 -159 47
-24 49 -19 5 13 -52 38 -98 94 -131 161 -38 77 -38 182 -1 258 14 28 25 52 24
52 -1 0 -9 -8 -17 -17z"/>
<path d="M2095 2310 c18 -33 77 -100 108 -121 21 -15 11 0 -32 47 -89 95 -85
91 -76 74z"/>
<path d="M2668 1963 c7 -3 16 -2 19 1 4 3 -2 6 -13 5 -11 0 -14 -3 -6 -6z"/>
<path d="M974 3718 c-65 -71 -152 -200 -190 -282 -28 -61 -94 -246 -94 -261 1
-5 20 38 44 96 60 148 151 304 263 452 24 31 42 57 40 57 -3 0 -31 -28 -63
-62z"/>
<path d="M3660 3567 c47 -45 123 -109 170 -142 47 -33 91 -66 98 -75 59 -72
149 -302 178 -458 13 -71 15 -133 11 -347 -5 -266 -10 -309 -56 -455 -11 -35
-19 -66 -17 -68 5 -4 51 135 70 213 8 33 22 111 30 173 9 61 20 131 26 155 15
64 12 254 -5 353 -18 103 -62 239 -104 322 -34 68 -142 204 -202 256 -36 31
-50 36 -92 36 -46 0 -52 3 -111 60 -35 33 -67 60 -72 60 -5 0 29 -38 76 -83z"/>
<path d="M4550 3479 c0 -4 18 -44 39 -90 72 -153 123 -349 157 -600 31 -230
17 -634 -30 -866 -7 -34 -9 -60 -5 -57 13 7 48 125 70 230 26 125 37 484 20
620 -29 222 -95 456 -176 631 -39 83 -75 147 -75 132z"/>
<path d="M4766 3245 c17 -59 66 -287 80 -372 21 -136 30 -491 15 -623 -34
-302 -114 -547 -270 -825 -44 -79 -54 -90 -78 -90 -22 0 -35 -11 -65 -55 -177
-252 -527 -584 -750 -710 -64 -35 -63 -34 -71 -70 -13 -52 6 -56 79 -15 296
164 609 458 807 757 70 105 195 351 246 482 54 142 97 321 117 488 20 171 15
482 -11 648 -19 123 -67 322 -89 371 -9 19 -14 25 -10 14z"/>
<path d="M676 3134 c-4 -14 -5 -28 -3 -31 3 -2 8 8 11 23 4 14 5 28 3 31 -3 2
-8 -8 -11 -23z"/>
<path d="M4521 2994 c0 -11 3 -14 6 -6 3 7 2 16 -1 19 -3 4 -6 -2 -5 -13z"/>
<path d="M4532 2955 c0 -11 4 -33 8 -50 7 -27 8 -27 8 -5 0 14 -4 36 -8 50 -6
20 -8 21 -8 5z"/>
<path d="M4557 2785 c3 -49 7 -92 9 -94 7 -8 3 94 -6 139 -6 32 -7 18 -3 -45z"/>
<path d="M715 2470 c2 -91 9 -181 14 -200 11 -40 4 165 -10 290 -6 55 -7 32
-4 -90z"/>
<path d="M4552 2265 c0 -16 2 -22 5 -12 2 9 2 23 0 30 -3 6 -5 -1 -5 -18z"/>
<path d="M4022 1985 c-17 -37 -14 -45 4 -12 9 16 14 31 11 33 -2 2 -9 -7 -15
-21z"/>
<path d="M4533 1583 c-26 -67 -126 -229 -228 -370 -76 -105 -244 -281 -313
-328 l-44 -29 -18 24 -17 23 -56 -56 c-139 -139 -467 -281 -780 -337 -379 -69
-806 -29 -1151 107 -110 43 -341 158 -445 221 -131 78 -130 78 -95 46 62 -58
178 -151 267 -214 51 -36 108 -87 129 -114 40 -54 61 -68 147 -97 482 -167
1108 -151 1574 40 226 92 447 265 686 535 183 206 378 513 369 580 -3 23 -6
19 -25 -31z"/>
<path d="M4580 1620 c-6 -11 -8 -20 -6 -20 3 0 10 9 16 20 6 11 8 20 6 20 -3
0 -10 -9 -16 -20z"/>
<path d="M910 1559 c0 -27 103 -189 181 -284 80 -97 166 -173 232 -206 21 -11
73 -49 115 -85 151 -126 452 -327 468 -312 2 3 -30 27 -73 54 -253 156 -488
338 -629 487 -50 53 -120 137 -155 188 -76 110 -138 181 -139 158z"/>
<path d="M2853 263 c15 -2 39 -2 55 0 15 2 2 4 -28 4 -30 0 -43 -2 -27 -4z"/>
<path d="M2638 253 c34 -2 90 -2 125 0 34 2 6 3 -63 3 -69 0 -97 -1 -62 -3z"/>
</g>
</svg>
