<?xml version="1.0" standalone="no"?>
<!DOCTYPE svg PUBLIC "-//W3C//DTD SVG 20010904//EN"
 "http://www.w3.org/TR/2001/REC-SVG-20010904/DTD/svg10.dtd">
<svg version="1.0" xmlns="http://www.w3.org/2000/svg"
 width="500pt" height="500pt" viewBox="0 0 512.000000 512.000000"
 preserveAspectRatio="xMidYMid meet">
<metadata>
Created by potrace 1.16, written by Peter Selinger 2001-2019
</metadata>
<g transform="translate(0.000000,512.000000) scale(0.100000,-0.100000)"
fill="#000000" stroke="none">
<path d="M2367 4815 c-43 -19 -91 -35 -108 -35 -35 0 -72 -37 -90 -90 -7 -19
-21 -51 -31 -71 -15 -30 -17 -44 -9 -80 34 -150 43 -219 31 -234 -18 -21 -8
-133 16 -182 11 -21 29 -42 40 -47 17 -8 23 -22 28 -70 3 -33 15 -77 26 -98
11 -21 20 -56 20 -78 0 -35 -7 -47 -62 -103 -62 -62 -67 -66 -243 -134 -99
-39 -206 -79 -239 -89 -34 -11 -64 -27 -72 -40 -8 -11 -18 -52 -23 -90 -5 -38
-20 -107 -34 -154 -36 -117 -77 -347 -77 -429 0 -38 -11 -126 -24 -197 -14
-71 -32 -181 -40 -244 -9 -63 -26 -152 -37 -197 -13 -51 -19 -99 -16 -125 3
-24 12 -117 21 -208 21 -206 35 -278 102 -513 29 -104 56 -204 60 -222 8 -44
57 -102 94 -110 34 -7 34 -7 114 -300 51 -186 94 -321 95 -302 2 15 -91 374
-131 509 l-40 137 21 128 c17 101 30 146 62 212 22 47 43 104 46 128 3 24 9
46 13 48 5 3 60 -6 124 -20 64 -14 127 -25 140 -25 40 0 105 41 162 103 89 96
82 108 -10 18 -47 -47 -87 -83 -90 -80 -2 2 4 40 14 84 10 44 17 81 15 84 -6
6 -207 31 -252 31 -28 0 -43 4 -43 13 0 6 15 58 33 114 l34 102 16 -27 c19
-33 57 -69 57 -55 0 6 -18 48 -39 94 -41 88 -63 175 -82 319 -5 47 -19 130
-29 185 -11 55 -29 165 -40 244 -12 79 -34 198 -50 265 -16 66 -42 192 -59
279 -17 87 -35 166 -40 175 -16 26 -14 10 23 -194 46 -258 59 -366 59 -519 0
-143 -21 -265 -74 -428 -16 -49 -29 -93 -29 -98 0 -4 14 -24 31 -44 35 -39 35
-39 -41 -21 -95 22 -179 -2 -219 -64 -15 -23 -14 -23 23 5 37 28 45 30 159 35
104 4 122 3 148 -13 16 -11 29 -21 29 -23 0 -3 -57 -2 -127 2 -94 4 -136 3
-158 -7 -30 -12 -30 -12 30 -21 102 -14 164 -36 203 -74 24 -23 30 -33 17 -28
-44 16 -140 33 -148 25 -4 -4 16 -20 45 -36 91 -48 88 -41 88 -189 0 -108 -4
-139 -20 -173 -10 -24 -25 -43 -33 -43 -33 0 -106 33 -155 70 -32 25 -49 33
-43 22 17 -32 82 -84 138 -109 l53 -25 -35 -41 c-48 -56 -38 -57 18 -2 25 25
48 45 50 45 2 0 2 -44 0 -97 -3 -128 -19 -200 -45 -214 -11 -6 -37 -26 -57
-44 l-37 -34 -49 167 c-73 250 -94 352 -105 512 -6 80 -18 177 -26 216 l-15
72 34 88 c19 49 64 149 101 222 75 149 158 333 153 338 -2 2 -34 -54 -71 -124
-37 -70 -83 -152 -102 -182 l-35 -55 6 55 c13 124 39 217 90 330 30 64 57 129
61 145 13 50 -14 18 -61 -73 l-44 -87 -2 40 c-4 77 3 121 43 300 22 99 47 207
54 240 8 33 14 76 14 95 0 42 10 59 36 64 58 12 173 54 283 102 68 30 125 53
127 51 2 -1 -15 -30 -36 -62 l-40 -60 35 -20 c19 -11 35 -23 35 -27 0 -4 -18
-17 -40 -28 -22 -11 -40 -27 -40 -35 0 -7 13 -65 29 -127 67 -255 248 -738
386 -1028 82 -171 88 -202 61 -293 -17 -56 -17 -62 3 -182 22 -127 25 -201 11
-245 -5 -16 -8 -19 -9 -8 -1 22 -39 48 -58 41 -8 -3 -19 -16 -24 -29 -17 -46
25 -100 57 -73 11 9 11 2 -1 -37 -81 -272 -201 -512 -289 -576 -40 -29 -43
-30 -131 -25 l-90 5 40 -19 c57 -26 120 -34 167 -19 76 22 203 164 288 323 23
43 44 77 45 75 4 -4 -13 -315 -21 -366 l-6 -44 -54 4 -53 3 39 -40 c58 -59 94
-147 115 -279 4 -21 8 -36 11 -33 8 8 -17 290 -31 345 -9 37 -10 63 -4 85 5
18 12 97 15 177 7 211 10 230 38 230 20 0 26 -10 45 -84 25 -94 111 -275 166
-348 19 -26 54 -60 77 -75 35 -24 52 -28 107 -27 36 0 78 3 94 7 35 9 35 8 -2
-191 -37 -197 -47 -282 -33 -282 12 0 35 63 136 370 40 124 94 270 118 325
l44 100 40 3 c38 3 42 6 85 80 75 130 95 174 82 179 -9 3 -3 18 17 48 17 24
30 51 30 59 0 9 20 53 45 99 33 61 46 100 53 152 6 39 27 142 47 231 l38 161
-51 184 c-28 101 -74 283 -102 404 -27 121 -66 279 -85 350 -19 72 -55 209
-80 305 -26 98 -54 183 -63 192 -9 9 -111 49 -227 89 -228 77 -265 94 -315
136 -70 58 -111 158 -79 190 6 6 14 43 17 81 4 62 7 71 29 81 47 22 87 164 63
226 l-12 30 -13 -30 c-23 -52 -17 -1 10 81 14 43 28 94 31 115 11 68 -36 163
-97 194 -18 10 -29 23 -29 36 0 33 -60 85 -121 104 -29 9 -85 19 -124 21 -64
4 -77 1 -148 -31z m253 -22 c30 -16 61 -39 69 -53 l16 -25 -33 27 c-35 29
-118 58 -161 57 -24 0 -25 -1 -7 -12 37 -23 118 -101 132 -129 25 -49 15 -53
-15 -6 -48 75 -132 127 -208 129 l-38 1 40 19 c61 28 139 25 205 -8z m-110
-64 c10 -5 -4 -8 -41 -9 -31 0 -70 -5 -88 -11 -48 -17 -48 -4 1 20 43 22 91
22 128 0z m-276 -39 c10 -13 9 -13 -6 -1 -10 7 -18 21 -17 30 0 13 1 14 6 1 3
-8 11 -22 17 -30z m282 -24 c26 -26 34 -42 33 -67 -1 -28 -3 -29 -6 -9 -10 53
-64 87 -110 69 -15 -5 -48 -30 -75 -55 -26 -24 -55 -44 -65 -44 -14 0 -12 3 7
17 14 9 32 26 39 37 66 93 120 109 177 52z m294 -17 c17 -13 18 -17 5 -10 -33
17 -51 31 -40 31 6 0 21 -10 35 -21z m-610 -84 c12 -4 20 -9 17 -11 -2 -3 -16
0 -31 5 -18 7 -26 18 -25 33 l0 23 9 -22 c5 -12 18 -24 30 -28z m584 -23 l17
-34 -30 23 c-24 17 -28 25 -19 36 13 16 11 17 32 -25z m-324 -14 c48 -20 57
-21 109 -9 107 25 127 25 145 0 10 -15 16 -44 16 -84 0 -44 7 -73 25 -109 18
-36 25 -65 25 -107 0 -60 -25 -130 -44 -128 -6 1 -16 1 -22 0 -18 -2 -44 -76
-54 -157 -10 -80 -28 -124 -68 -166 -23 -25 -33 -28 -93 -28 l-67 0 -76 90
c-53 64 -77 100 -82 127 -20 118 -30 148 -47 145 -21 -4 -57 68 -56 113 l1 30
14 -35 c40 -98 39 -98 41 12 1 57 5 140 8 185 6 76 9 84 35 103 64 46 113 50
190 18z m311 -31 c10 -18 6 -17 -20 7 -36 34 -39 41 -11 26 11 -6 25 -20 31
-33z m-585 -222 c1 -8 -2 -13 -7 -9 -5 3 -9 12 -9 21 0 19 13 9 16 -12z m654
-121 c-13 -44 -40 -80 -40 -53 0 21 44 119 49 107 2 -5 -2 -29 -9 -54z m-104
-156 c-7 -36 -44 -103 -52 -95 -3 3 7 34 23 70 30 70 39 78 29 25z m-341 -264
c20 -21 45 -34 73 -39 47 -8 72 -27 72 -56 0 -30 -18 -23 -94 38 -105 83 -136
115 -136 137 0 18 5 15 27 -14 15 -19 41 -49 58 -66z m376 -80 c6 -58 8 -130
4 -160 l-6 -54 -71 61 c-38 33 -85 67 -103 76 l-33 16 58 44 c65 48 120 116
121 147 1 49 18 -26 30 -130z m-400 62 c32 -30 79 -69 104 -87 l45 -33 -40
-20 c-22 -12 -67 -45 -99 -73 -33 -29 -62 -53 -65 -53 -3 0 -6 15 -6 33 0 17
-5 77 -12 133 -10 91 -7 154 8 154 4 0 33 -24 65 -54z m-107 -157 c-2 -9 -29
-33 -60 -54 l-56 -39 -34 19 -34 18 30 41 c16 23 56 70 87 106 l58 66 7 -71
c3 -38 4 -77 2 -86z m341 103 l-38 -37 34 42 c19 23 36 39 38 37 3 -3 -12 -21
-34 -42z m333 -90 l65 -84 -24 -19 c-33 -25 -39 -24 -93 16 l-46 36 0 81 c0
96 -1 96 98 -30z m225 -27 c188 -63 207 -72 203 -90 -3 -11 -20 -99 -36 -195
-17 -96 -37 -204 -44 -240 l-14 -65 -2 65 c-1 36 -5 88 -9 115 l-7 50 -12 -95
c-7 -52 -17 -131 -21 -175 l-7 -80 -8 48 c-5 27 -15 51 -22 54 -8 3 -14 13
-14 23 0 10 -6 22 -13 28 -17 14 -83 18 -121 7 -27 -7 -29 -6 -23 16 18 64 67
313 67 338 0 22 -7 31 -28 40 -15 6 -40 20 -56 30 l-29 19 42 21 41 22 -56 71
c-31 39 -53 69 -47 67 5 -2 102 -35 216 -74z m-873 -235 c21 -238 65 -464 150
-765 47 -163 101 -386 98 -396 -6 -17 -122 225 -203 421 -123 298 -271 749
-263 802 2 13 39 47 103 93 l100 72 2 -51 c2 -28 7 -107 13 -176z m510 -205
c-12 -136 -33 -235 -74 -345 -21 -54 -25 -60 -25 -34 -2 77 -23 307 -36 384
-8 47 -28 121 -44 166 -32 88 -32 109 5 192 l19 43 60 -45 c33 -25 65 -46 71
-46 13 0 22 28 26 75 1 17 4 -35 6 -115 2 -80 -2 -203 -8 -275z m-325 349 c19
-26 35 -55 35 -65 0 -10 -12 -53 -26 -96 -32 -96 -47 -273 -38 -458 3 -71 3
-127 0 -124 -26 25 -108 428 -121 594 -3 44 -8 90 -11 103 -3 13 0 22 8 22 7
0 33 16 57 35 24 19 47 35 52 35 4 0 24 -21 44 -46z m445 -4 c30 -20 76 -48
102 -63 55 -32 55 -9 2 -242 -19 -83 -34 -153 -34 -158 0 -4 -7 -7 -16 -7 -10
0 -14 6 -10 18 12 38 34 150 40 197 3 31 -8 1 -30 -80 -68 -249 -97 -332 -204
-580 -140 -323 -203 -465 -206 -462 -6 6 90 362 145 537 110 346 117 387 127
692 5 138 10 195 18 191 6 -4 36 -23 66 -43z m489 -322 c6 -25 47 -155 91
-289 44 -133 79 -244 77 -246 -2 -2 -32 61 -67 139 -35 79 -70 152 -78 163
-13 18 -13 12 -8 -50 9 -91 27 -160 87 -328 28 -77 48 -141 45 -144 -6 -6 -46
58 -99 157 -22 44 -43 78 -45 76 -6 -6 67 -185 104 -257 23 -43 64 -96 115
-147 83 -85 99 -108 48 -70 -26 20 -43 23 -113 23 -76 0 -85 -2 -144 -37 -35
-21 -67 -38 -72 -38 -4 0 -11 30 -15 68 -4 37 -15 114 -26 171 -10 58 -19 137
-19 175 0 90 24 395 56 691 13 127 25 237 25 245 1 8 7 -46 14 -120 7 -74 18
-156 24 -182z m-229 -207 c0 -12 -79 -30 -177 -39 -46 -4 -83 -7 -83 -6 0 25
18 34 69 35 31 1 81 4 111 9 81 11 80 11 80 1z m-50 -75 c0 -33 -1 -34 -62
-49 -35 -9 -87 -19 -115 -23 l-53 -7 16 47 c15 45 17 46 57 47 23 0 62 4 87 8
71 13 70 14 70 -23z m-15 -113 c-7 -38 -23 -93 -34 -123 -46 -122 -178 -321
-330 -499 -45 -52 -81 -98 -81 -103 0 -13 79 54 154 129 32 32 108 124 169
206 60 81 112 146 114 144 7 -8 -50 -153 -94 -240 -46 -89 -84 -138 -202 -259
-62 -64 -64 -68 -39 -68 83 0 197 78 285 193 25 34 50 66 54 71 22 24 -119
-298 -157 -361 -24 -39 -44 -81 -44 -92 0 -19 4 -21 43 -14 68 13 139 8 182
-11 39 -18 40 -18 15 -27 -14 -5 -74 -17 -135 -27 l-110 -18 3 -40 c6 -72 21
-113 45 -119 12 -3 54 -1 92 4 39 4 72 7 74 4 3 -2 -3 -18 -14 -35 -17 -30
-17 -31 0 -24 35 13 -7 -25 -61 -56 -80 -45 -88 -60 -23 -43 29 8 54 13 56 12
1 -2 -8 -32 -21 -67 -30 -82 -40 -130 -29 -130 5 0 31 39 57 87 26 49 45 77
42 63 -13 -55 -18 -140 -10 -167 6 -23 9 -15 15 47 3 41 17 113 30 160 l23 85
18 -70 c45 -173 50 -208 43 -300 -12 -153 -49 -221 -145 -264 -61 -28 -163
-28 -207 -1 -93 56 -205 309 -267 606 -14 66 -36 162 -50 215 -29 117 -51 247
-43 256 4 3 13 0 22 -7 22 -18 58 -5 77 29 15 28 15 30 -6 50 -12 12 -30 21
-40 21 -13 0 -16 5 -11 23 17 53 79 207 167 412 53 121 108 254 123 296 l29
77 60 6 c34 4 84 13 111 20 28 8 53 15 56 15 4 1 1 -29 -6 -66z m165 -501 c25
-90 40 -165 37 -180 -4 -18 3 -41 19 -69 22 -38 23 -44 10 -80 -8 -22 -19 -73
-25 -114 -16 -108 -53 -269 -62 -269 -14 0 -74 287 -88 426 -10 101 -4 172 29
319 25 116 29 129 34 124 3 -2 23 -73 46 -157z m-1336 -43 c28 -165 23 -232
-31 -392 l-48 -140 -5 134 c-4 110 -2 145 13 193 14 48 15 66 6 94 -11 32 -2
163 18 257 l6 30 13 -41 c7 -23 19 -84 28 -135z m1707 -107 c29 -15 54 -32 56
-38 2 -5 -31 -21 -74 -35 -42 -13 -78 -29 -80 -35 -2 -6 13 -16 34 -22 21 -7
51 -22 66 -35 29 -22 29 -22 17 -86 -13 -73 -49 -159 -76 -183 -22 -19 -80
-33 -174 -42 -59 -6 -63 -5 -40 7 14 8 41 17 61 21 40 7 112 55 128 84 7 13
-18 4 -93 -33 -124 -60 -141 -72 -125 -91 6 -8 8 -14 3 -14 -5 0 -19 -3 -31
-6 -23 -6 -23 -6 -8 35 7 22 19 78 25 123 20 155 26 172 78 209 43 31 45 34
24 37 -13 2 -32 -4 -42 -13 -19 -17 -17 -19 -48 35 l-14 25 22 -24 c18 -21 24
-23 38 -13 40 28 95 53 148 67 31 8 60 18 63 21 7 8 -113 -2 -149 -12 -40 -11
-10 15 36 31 58 21 96 18 155 -13z m-1100 -49 c-12 -20 -14 -14 -5 12 4 9 9
14 11 11 3 -2 0 -13 -6 -23z m-378 -340 c26 -3 47 -10 47 -15 0 -10 -17 -9
-175 18 l-80 14 80 -6 c44 -2 101 -7 128 -11z m-113 -23 c52 -6 108 -13 123
-16 30 -6 30 -9 1 -91 -15 -40 -18 -43 -52 -42 -20 0 -84 13 -142 27 -115 30
-110 23 -89 104 9 33 12 37 37 33 15 -3 70 -9 122 -15z m1023 -98 c3 -15 8
-34 12 -43 5 -13 -7 -18 -66 -28 -39 -7 -74 -9 -79 -5 -6 7 -30 91 -30 106 0
2 35 2 79 0 76 -3 79 -4 84 -30z m488 9 c-8 -5 -42 -13 -75 -16 -82 -10 -100
-21 -49 -30 42 -7 120 1 161 16 21 8 22 7 11 -14 -7 -12 -29 -45 -50 -73 -21
-28 -52 -82 -68 -120 -16 -38 -41 -96 -56 -128 l-26 -59 -18 29 c-23 38 -84
91 -128 112 -33 16 -35 19 -29 58 8 65 56 183 79 195 16 9 178 33 247 38 13 1
13 -1 1 -8z m-263 -331 c69 -52 101 -126 72 -170 -7 -11 -10 -4 -10 25 0 43
-19 71 -85 121 -32 24 -47 54 -27 54 4 0 27 -14 50 -30z m-1604 -164 c-41 -41
-44 -42 -44 -20 0 9 17 32 37 53 29 28 38 32 41 20 1 -9 -13 -32 -34 -53z
m1600 16 c8 -16 11 -34 7 -41 -6 -9 -10 -5 -15 12 -3 14 -9 32 -12 41 -10 27
5 18 20 -12z m-1607 -74 c-3 -8 -6 -5 -6 6 -1 11 2 17 5 13 3 -3 4 -12 1 -19z"/>
<path d="M2635 4308 c-27 -5 -60 -13 -71 -19 -31 -16 -44 -72 -37 -156 7 -90
-4 -110 -47 -88 -45 23 -44 1 0 -28 33 -21 45 -24 71 -17 55 16 62 28 39 65
-43 69 -18 185 36 164 10 -4 36 -8 57 -8 47 -1 51 24 5 39 -29 9 -27 9 20 5
41 -5 52 -3 52 8 0 36 -44 48 -125 35z"/>
<path d="M2284 4295 c-17 -7 -34 -20 -37 -30 -6 -14 -2 -16 23 -11 17 3 45 8
63 11 31 5 29 3 -23 -18 l-25 -10 26 -7 c22 -6 55 -7 122 -1 11 1 17 9 17 26
0 13 -8 28 -17 33 -33 17 -117 21 -149 7z"/>
<path d="M2435 3940 c-21 -7 48 -20 113 -20 56 0 25 -20 -42 -27 -63 -7 -73
-19 -23 -28 56 -11 92 -3 92 20 0 11 10 24 23 30 12 5 21 14 19 20 -4 12 -152
16 -182 5z"/>
<path d="M2900 3346 c0 -5 94 -56 105 -56 3 0 5 4 5 9 0 8 -19 17 -97 48 -7 3
-13 2 -13 -1z"/>
<path d="M2665 1673 c57 -117 159 -347 181 -411 10 -29 22 -52 26 -52 10 0 28
69 28 110 0 19 -11 59 -25 88 -30 64 -29 62 -7 63 14 0 14 2 -3 9 -12 4 -70
69 -129 144 -60 75 -110 136 -111 136 -2 0 16 -39 40 -87z"/>
<path d="M3494 1496 c-30 -22 -13 -25 31 -5 35 15 37 18 14 18 -14 1 -34 -5
-45 -13z"/>
<path d="M2101 2414 c0 -11 3 -14 6 -6 3 7 2 16 -1 19 -3 4 -6 -2 -5 -13z"/>
<path d="M2114 2330 c10 -82 38 -221 44 -216 5 6 -38 258 -46 266 -2 3 -2 -20
2 -50z"/>
<path d="M2123 1886 c-5 -30 -6 -53 -2 -50 9 5 24 93 17 99 -3 3 -9 -20 -15
-49z"/>
<path d="M1855 1398 c-26 -158 -29 -188 -16 -188 24 0 55 200 33 214 -7 4 -13
-6 -17 -26z"/>
</g>
</svg>